<svg xmlns="http://www.w3.org/2000/svg" viewBox="0 0 36 36">
  <path d="M18 4C18 4 6 10 6 20C6 20 6 22 8 22C10 22 10 20 12 20C14 20 14 22 16 22C17 22 17.5 21.5 18 21C18.5 21.5 19 22 20 22C22 22 22 20 24 20C26 20 26 22 28 22C30 22 30 20 30 20C30 10 18 4 18 4Z" fill="#D4A843"/>
  <line x1="18" y1="4" x2="18" y2="34" stroke="#2C3E6B" stroke-width="2" stroke-linecap="round"/>
  <path d="M15 32C15 32 15 30 18 30C21 30 21 32 21 32" stroke="#2C3E6B" stroke-width="1.8" stroke-linecap="round" fill="none"/>
</svg>